<?xml version="1.0" encoding="UTF-8" standalone="no"?>
<svg width="24px" height="24px" viewBox="0 0 24 24" version="1.1" xmlns="http://www.w3.org/2000/svg" xmlns:xlink="http://www.w3.org/1999/xlink" xmlns:sketch="http://www.bohemiancoding.com/sketch/ns">
    <!-- Generator: Sketch 3.3.3 (12072) - http://www.bohemiancoding.com/sketch -->
    <title>editor-setting-gear-outline-stroke</title>
    <desc>Created with Sketch.</desc>
    <defs></defs>
    <g id="miu" stroke="none" stroke-width="1" fill="none" fill-rule="evenodd" sketch:type="MSPage">
        <g id="Artboard-1" sketch:type="MSArtboardGroup" transform="translate(-359.000000, -443.000000)">
            <g id="slice" sketch:type="MSLayerGroup" transform="translate(215.000000, 119.000000)"></g>
            <path d="M377.005645,450.93734 C375.701979,449.013949 373.498595,447.75 371,447.75 C368.501405,447.75 366.298021,449.013949 364.994355,450.93734 L364.994355,450.93734 L370.515522,454.124987 C370.659048,454.04535 370.824228,454 371,454 C371.175772,454 371.340952,454.04535 371.484478,454.124987 L377.005645,450.93734 Z M377.508289,451.801839 C377.983224,452.766505 378.25,453.852098 378.25,455 C378.25,458.836001 375.270831,461.976179 371.5,462.233028 L371.5,462.233028 L371.5,455.866218 C371.798901,455.693313 372,455.370141 372,455 C372,454.994035 371.999948,454.988082 371.999844,454.982141 L377.508289,451.801839 Z M364.491711,451.801839 C364.016776,452.766505 363.75,453.852098 363.75,455 C363.75,458.836001 366.729169,461.976179 370.5,462.233028 L370.5,455.866218 C370.201099,455.693313 370,455.370141 370,455 C370,454.994035 370.000052,454.988082 370.000156,454.982141 L364.491711,451.801839 L364.491711,451.801839 Z M370.175489,463.209314 L368.854006,465.788638 L368.620315,462.901613 C368.087471,462.741362 367.577326,462.528686 367.095874,462.269579 L364.888728,464.146166 L365.778276,461.387505 C365.352038,461.038644 364.961356,460.647962 364.612495,460.221723 L361.853834,461.111272 L363.730421,458.904126 C363.471314,458.422674 363.258638,457.912529 363.098387,457.379685 L360.211362,457.145993 L362.790686,455.82451 C362.763777,455.553321 362.75,455.27827 362.75,455 C362.75,454.72173 362.763777,454.446678 362.790686,454.175488 L360.211362,452.854005 L363.098387,452.620315 C363.258638,452.08747 363.471314,451.577325 363.730421,451.095873 L361.853835,448.888727 L364.612496,449.778276 C364.961355,449.352038 365.352037,448.961356 365.778275,448.612496 L364.888725,445.853836 L367.095874,447.730421 C367.577327,447.471313 368.087473,447.258637 368.620318,447.098386 L368.854011,444.211361 L370.175491,446.790686 C370.44668,446.763777 370.721731,446.75 371,446.75 C371.27827,446.75 371.553322,446.763777 371.824511,446.790686 L373.145995,444.211362 L373.379686,447.098387 C373.91253,447.258638 374.422675,447.471314 374.904128,447.730422 L377.111275,445.853836 L376.221726,448.612497 C376.647964,448.961357 377.038646,449.35204 377.387506,449.778279 L380.146168,448.888731 L378.269581,451.095877 C378.528688,451.57733 378.741364,452.087475 378.901615,452.620319 L381.788639,452.854013 L379.209314,454.175492 C379.236223,454.446681 379.25,454.721731 379.25,455 C379.25,455.27827 379.236223,455.553323 379.209314,455.824513 L381.788638,457.145996 L378.901613,457.379687 C378.741361,457.912531 378.528685,458.422677 378.269577,458.904129 L380.146163,461.111276 L377.387502,460.221727 C377.038642,460.647965 376.647959,461.038647 376.22172,461.387507 L377.111267,464.146169 L374.904124,462.26958 C374.422672,462.528687 373.912527,462.741363 373.379683,462.901614 L373.145991,465.788639 L371.824509,463.209314 C371.553321,463.236223 371.278269,463.25 371,463.25 C370.72173,463.25 370.446678,463.236223 370.175489,463.209314 L370.175489,463.209314 Z" id="editor-setting-gear-outline-stroke" fill="#000000" sketch:type="MSShapeGroup"></path>
        </g>
    </g>
</svg>